<svg id="svg" version="1.1" xmlns="http://www.w3.org/2000/svg" xmlns:xlink="http://www.w3.org/1999/xlink" width="400" height="423.963133640553" viewBox="0, 0, 400,423.963133640553"><g id="svgg"><path id="path0" d="M176.344 60.819 C 176.344 61.038,175.757 61.098,174.639 60.995 C 173.334 60.874,172.987 60.926,173.161 61.217 C 173.335 61.506,173.284 61.516,172.947 61.255 C 172.382 60.819,171.342 60.822,171.049 61.260 C 170.886 61.505,170.822 61.505,170.819 61.260 C 170.816 61.075,170.397 60.911,169.887 60.897 C 169.377 60.882,169.018 60.965,169.090 61.080 C 169.162 61.196,168.024 61.211,166.561 61.115 C 165.098 61.018,163.418 60.996,162.826 61.065 C 162.235 61.134,161.475 61.185,161.137 61.178 C 160.799 61.171,158.632 61.118,156.322 61.059 C 152.701 60.966,152.114 61.017,152.072 61.428 C 151.837 63.709,151.874 70.592,152.124 71.237 C 152.639 72.563,152.492 83.414,151.932 85.475 C 151.621 86.619,151.562 88.770,151.840 88.863 C 151.964 88.906,151.860 89.336,151.609 89.820 C 151.358 90.304,151.152 90.862,151.152 91.061 C 151.152 91.259,150.892 91.932,150.573 92.556 C 150.003 93.675,150.004 93.708,150.615 94.847 C 152.016 97.463,150.884 104.455,149.059 104.455 C 148.898 104.455,148.686 104.697,148.588 104.992 C 148.490 105.288,148.171 105.876,147.880 106.298 C 147.588 106.720,147.542 106.893,147.776 106.682 C 149.060 105.526,151.151 107.237,151.153 109.444 C 151.157 115.209,156.098 130.568,157.948 130.568 C 158.102 130.568,158.485 130.992,158.800 131.510 C 159.114 132.027,160.187 133.306,161.183 134.351 C 162.180 135.397,163.406 136.805,163.909 137.481 C 164.412 138.157,164.978 138.848,165.166 139.017 C 165.355 139.186,166.094 140.084,166.810 141.014 C 167.525 141.943,168.546 143.187,169.079 143.779 C 170.713 145.595,172.550 147.893,172.900 148.560 C 173.082 148.908,173.794 149.873,174.481 150.705 C 175.408 151.827,175.732 152.494,175.739 153.297 C 175.758 155.339,177.271 156.112,180.952 155.958 C 185.550 155.766,187.990 159.497,185.064 162.246 C 184.628 162.656,184.332 163.284,184.332 163.802 C 184.332 164.279,184.194 164.670,184.025 164.670 C 183.856 164.670,183.444 164.943,183.110 165.277 C 182.444 165.943,177.815 166.841,176.380 166.582 C 175.938 166.502,174.569 166.395,173.338 166.344 C 172.107 166.292,170.725 166.173,170.266 166.079 C 169.807 165.985,168.257 165.836,166.820 165.747 C 164.146 165.581,161.672 165.091,161.152 164.624 C 160.992 164.480,160.685 164.363,160.470 164.363 C 160.097 164.363,157.925 163.445,155.300 162.180 C 153.135 161.136,151.102 158.937,151.366 157.927 C 151.557 157.195,154.839 155.771,154.839 156.420 C 154.839 156.584,154.967 156.639,155.125 156.542 C 155.282 156.444,155.499 156.508,155.607 156.682 C 155.715 156.857,155.943 156.913,156.113 156.807 C 156.284 156.702,156.628 156.907,156.878 157.263 C 157.127 157.619,157.592 157.911,157.910 157.911 C 158.229 157.911,158.575 158.049,158.679 158.218 C 158.783 158.387,159.681 158.525,160.674 158.525 C 161.667 158.525,162.852 158.667,163.308 158.840 C 164.724 159.379,171.121 159.339,171.121 158.792 C 171.121 158.656,171.329 158.624,171.582 158.721 C 171.836 158.819,172.043 158.773,172.043 158.620 C 172.043 158.467,172.515 158.397,173.091 158.464 C 174.946 158.680,175.239 158.200,173.926 157.098 C 172.797 156.150,172.749 156.139,171.276 156.513 C 170.450 156.723,169.283 156.852,168.682 156.800 C 168.080 156.748,166.363 156.630,164.865 156.537 C 162.036 156.362,160.949 156.194,159.908 155.769 C 159.570 155.631,158.602 155.277,157.757 154.983 C 156.912 154.688,156.003 154.259,155.736 154.029 C 155.469 153.798,155.090 153.610,154.894 153.610 C 154.697 153.610,154.212 153.328,153.816 152.984 C 153.096 152.358,151.468 151.395,149.155 150.226 C 148.479 149.885,147.684 149.469,147.389 149.303 C 147.093 149.137,146.658 148.898,146.423 148.771 C 145.533 148.293,139.918 143.372,139.452 142.663 C 139.185 142.256,138.676 141.653,138.323 141.324 C 137.969 140.994,137.289 140.204,136.812 139.568 C 133.804 135.560,133.856 135.490,132.879 144.854 C 131.898 154.249,131.696 193.300,132.596 199.386 C 132.709 200.146,132.836 201.114,132.879 201.536 C 133.178 204.454,134.340 210.904,134.819 212.298 C 135.136 213.222,135.491 214.744,135.607 215.679 C 135.879 217.862,138.632 227.319,139.287 228.319 C 139.562 228.738,139.694 229.174,139.581 229.287 C 139.468 229.400,139.537 229.493,139.734 229.493 C 139.931 229.493,140.070 229.597,140.043 229.724 C 139.979 230.028,140.388 231.128,141.670 234.091 C 142.069 235.014,142.776 236.515,143.241 237.425 C 143.706 238.335,144.086 239.262,144.086 239.485 C 144.086 239.709,144.432 240.302,144.854 240.804 C 145.276 241.306,145.625 241.835,145.629 241.980 C 145.633 242.124,145.906 242.588,146.237 243.011 C 146.567 243.433,146.849 243.986,146.863 244.240 C 146.941 245.640,148.305 247.785,148.621 247.005 C 149.004 246.057,152.411 244.247,154.830 243.706 C 157.253 243.163,157.520 243.091,159.727 242.378 C 160.818 242.026,161.993 241.540,162.337 241.299 C 162.681 241.057,163.192 240.860,163.472 240.860 C 163.751 240.860,164.155 240.650,164.369 240.392 C 164.582 240.134,164.829 239.995,164.916 240.082 C 165.003 240.169,165.225 240.119,165.410 239.970 C 165.594 239.821,166.989 239.192,168.510 238.574 C 170.031 237.955,171.690 237.261,172.197 237.031 C 173.758 236.325,178.194 234.247,181.260 232.787 C 182.865 232.022,184.939 231.166,185.868 230.884 C 186.797 230.603,188.802 229.958,190.323 229.452 C 191.843 228.945,193.431 228.462,193.851 228.378 C 195.254 228.098,200.425 226.019,204.455 224.115 C 208.264 222.314,212.395 220.691,214.593 220.132 C 216.354 219.684,218.753 218.837,220.737 217.964 C 222.523 217.178,224.753 216.329,226.728 215.684 C 227.826 215.326,229.002 214.912,229.339 214.764 C 229.961 214.493,232.077 213.944,233.487 213.688 C 233.909 213.611,235.132 213.274,236.203 212.938 C 237.274 212.603,239.279 212.104,240.658 211.829 C 242.036 211.554,243.925 211.134,244.854 210.894 C 248.497 209.956,250.444 209.755,256.030 209.740 L 261.830 209.725 261.639 207.704 C 261.534 206.593,261.368 200.223,261.269 193.548 C 261.171 186.874,260.972 180.722,260.827 179.877 C 260.681 179.032,260.337 176.751,260.060 174.808 C 259.539 171.144,259.242 169.790,257.938 165.131 C 257.513 163.610,256.875 161.052,256.522 159.447 C 256.169 157.842,255.681 155.837,255.438 154.992 C 255.194 154.147,254.648 152.226,254.223 150.723 C 253.205 147.121,252.729 145.745,251.811 143.748 C 251.391 142.836,250.518 140.847,249.871 139.328 C 248.842 136.913,247.023 133.789,246.382 133.333 C 246.263 133.249,246.061 132.834,245.933 132.412 C 245.805 131.989,244.977 130.468,244.093 129.031 C 243.209 127.594,242.397 126.139,242.289 125.799 C 242.181 125.458,241.711 124.759,241.246 124.245 C 239.919 122.782,235.305 117.396,233.635 115.361 C 232.803 114.347,231.209 112.619,230.093 111.521 C 228.977 110.422,227.803 109.109,227.485 108.602 C 227.167 108.095,226.313 106.896,225.588 105.937 C 224.863 104.979,224.270 104.109,224.270 104.004 C 224.270 103.899,223.717 103.081,223.041 102.186 C 222.366 101.291,221.813 100.472,221.813 100.366 C 221.813 100.261,221.260 99.319,220.584 98.273 C 219.908 97.227,219.355 96.253,219.355 96.109 C 219.355 95.964,218.688 94.776,217.874 93.468 C 217.059 92.161,216.303 90.849,216.194 90.553 C 216.084 90.257,215.852 90.015,215.678 90.015 C 215.504 90.015,215.361 89.751,215.361 89.428 C 215.361 88.434,209.943 79.408,209.019 78.863 C 208.790 78.728,208.602 78.493,208.602 78.341 C 208.602 77.676,205.618 73.743,204.191 72.529 C 203.115 71.613,200.970 69.432,201.145 69.432 C 201.241 69.432,200.886 69.017,200.356 68.510 C 199.825 68.003,199.326 67.588,199.245 67.588 C 199.165 67.588,198.675 67.174,198.157 66.667 C 197.638 66.160,197.011 65.745,196.764 65.745 C 196.516 65.745,196.313 65.592,196.313 65.405 C 196.313 65.025,194.808 63.758,194.322 63.730 C 194.150 63.720,193.525 63.406,192.934 63.032 C 192.343 62.659,191.513 62.271,191.091 62.172 C 190.668 62.072,189.770 61.812,189.094 61.594 C 188.332 61.349,187.672 61.301,187.358 61.469 C 187.062 61.627,186.484 61.623,185.975 61.460 C 184.731 61.062,181.567 60.880,181.567 61.206 C 181.567 61.357,181.408 61.382,181.214 61.262 C 181.020 61.142,180.005 61.017,178.958 60.985 C 177.912 60.952,176.896 60.827,176.700 60.706 C 176.504 60.585,176.344 60.636,176.344 60.819 M157.599 64.821 C 158.403 65.251,158.807 66.809,158.696 69.048 C 158.644 70.104,158.730 70.968,158.889 70.968 C 159.047 70.968,159.096 71.097,158.999 71.254 C 158.546 71.988,158.301 74.492,158.598 75.346 C 158.822 75.987,158.817 76.317,158.583 76.462 C 158.377 76.590,158.354 76.835,158.524 77.110 C 158.689 77.377,158.674 77.701,158.486 77.927 C 158.276 78.181,158.282 78.500,158.504 78.916 C 158.910 79.674,158.924 79.970,158.542 79.734 C 158.373 79.630,158.280 80.074,158.320 80.791 C 158.358 81.471,158.280 82.028,158.147 82.028 C 158.014 82.028,158.062 82.278,158.253 82.584 C 158.521 83.012,158.494 83.350,158.139 84.044 C 157.818 84.672,157.761 85.168,157.953 85.677 C 158.134 86.160,158.107 86.553,157.872 86.837 C 157.676 87.072,157.600 87.349,157.703 87.452 C 157.805 87.554,157.687 87.927,157.439 88.281 C 157.192 88.634,156.989 89.205,156.989 89.550 C 156.989 89.904,156.689 90.310,156.298 90.483 C 155.918 90.652,155.626 91.030,155.649 91.324 C 155.673 91.618,155.569 91.859,155.419 91.859 C 155.269 91.859,155.146 91.651,155.146 91.398 C 155.146 91.144,155.000 90.937,154.821 90.937 C 154.642 90.937,154.573 90.811,154.669 90.656 C 154.764 90.502,154.738 90.329,154.610 90.272 C 153.443 89.754,152.961 85.972,153.633 82.607 C 153.815 81.697,154.020 79.570,154.089 77.880 C 154.378 70.730,154.359 69.489,153.943 68.712 C 152.990 66.931,155.851 63.885,157.599 64.821 M146.307 85.465 C 146.374 85.665,146.593 85.884,146.794 85.951 C 147.018 86.026,147.087 85.886,146.972 85.586 C 146.758 85.028,146.123 84.912,146.307 85.465 M134.604 131.542 C 134.581 131.824,134.473 132.307,134.363 132.617 C 134.210 133.051,134.251 133.100,134.543 132.831 C 134.751 132.639,134.859 132.156,134.784 131.756 C 134.708 131.356,134.627 131.260,134.604 131.542 M258.443 270.353 C 258.443 270.945,258.506 271.187,258.584 270.891 C 258.661 270.595,258.661 270.111,258.584 269.816 C 258.506 269.520,258.443 269.762,258.443 270.353 M161.905 298.803 C 161.905 298.904,162.243 299.630,162.656 300.416 C 163.069 301.201,163.657 302.499,163.962 303.301 C 164.267 304.103,164.620 304.760,164.747 304.761 C 164.873 304.761,164.977 304.881,164.977 305.027 C 164.977 305.172,165.418 306.244,165.956 307.408 C 166.495 308.572,166.902 309.702,166.862 309.919 C 166.756 310.486,168.860 314.757,170.223 316.743 C 170.861 317.673,172.148 319.677,173.084 321.198 C 174.019 322.719,175.308 324.530,175.948 325.222 C 177.874 327.305,179.139 328.768,180.969 331.029 C 184.555 335.462,186.239 341.043,186.206 348.387 C 186.200 349.654,186.324 351.175,186.481 351.767 C 187.233 354.599,186.994 358.422,185.995 359.551 C 184.363 361.393,176.505 362.812,166.824 363.013 C 162.362 363.105,157.911 363.800,157.911 364.404 C 157.911 364.573,157.634 364.623,157.296 364.516 C 156.959 364.409,156.682 364.434,156.681 364.572 C 156.681 364.710,156.232 364.855,155.683 364.894 C 155.135 364.933,154.513 365.201,154.302 365.490 C 154.035 365.855,153.917 365.889,153.917 365.603 C 153.917 365.303,153.747 365.343,153.303 365.745 C 152.965 366.051,152.688 366.208,152.688 366.094 C 152.688 365.619,150.006 367.305,148.510 368.720 C 145.781 371.300,144.974 373.829,146.390 375.356 C 146.813 375.811,147.158 376.432,147.158 376.735 C 147.158 377.037,147.365 377.364,147.617 377.461 C 147.870 377.558,147.998 377.764,147.902 377.919 C 147.444 378.660,149.956 379.101,154.895 379.146 C 157.652 379.171,160.599 379.198,161.444 379.206 C 172.897 379.318,190.186 379.073,199.232 378.672 C 201.260 378.582,204.712 378.429,206.905 378.333 C 211.221 378.143,211.568 378.011,212.534 376.191 C 213.470 374.428,213.703 370.669,213.236 364.884 C 212.912 360.872,212.929 360.172,213.385 358.602 C 215.326 351.921,216.211 350.722,220.041 349.586 C 224.359 348.305,227.991 348.715,230.722 350.793 C 231.313 351.243,231.935 351.565,232.104 351.509 C 232.273 351.454,232.312 351.508,232.191 351.629 C 231.997 351.823,233.022 353.006,236.759 356.902 C 237.291 357.457,237.670 357.911,237.601 357.911 C 236.922 357.911,249.160 369.992,251.459 371.591 C 252.642 372.414,253.974 373.382,254.419 373.744 C 254.865 374.106,256.178 374.788,257.338 375.260 C 258.498 375.733,260.000 376.358,260.676 376.651 C 265.469 378.724,276.386 379.620,279.149 378.166 C 283.058 376.110,284.392 371.235,281.709 368.807 C 281.377 368.507,281.106 368.152,281.106 368.019 C 281.106 367.582,278.621 363.803,278.235 363.655 C 278.028 363.576,277.454 362.908,276.960 362.170 C 275.476 359.955,273.407 357.604,272.941 357.604 C 272.701 357.604,272.504 357.402,272.504 357.156 C 272.504 356.661,270.307 354.224,269.860 354.224 C 269.706 354.224,269.420 353.969,269.225 353.657 C 268.953 353.222,268.335 353.045,266.563 352.895 C 265.294 352.788,263.008 352.422,261.484 352.083 C 259.960 351.743,258.498 351.548,258.235 351.649 C 257.963 351.753,257.757 351.670,257.757 351.456 C 257.757 351.222,257.471 351.135,256.999 351.225 C 256.581 351.305,256.307 351.261,256.390 351.127 C 256.473 350.994,255.950 350.811,255.229 350.721 C 251.068 350.202,247.977 349.698,244.700 349.005 C 240.565 348.131,240.645 348.163,241.221 347.587 C 241.631 347.177,244.451 346.516,245.776 346.519 C 246.029 346.520,248.898 346.586,252.151 346.666 C 255.720 346.754,258.065 346.697,258.065 346.524 C 258.065 346.366,257.854 346.237,257.596 346.237 C 257.338 346.237,256.996 345.891,256.836 345.469 C 256.675 345.046,256.367 344.695,256.152 344.689 C 255.937 344.683,254.544 344.645,253.056 344.605 C 251.427 344.561,250.266 344.391,250.134 344.179 C 250.014 343.985,249.088 343.736,248.076 343.626 C 247.064 343.516,245.805 343.314,245.278 343.177 C 244.750 343.040,243.865 342.981,243.311 343.046 C 242.757 343.110,242.118 343.008,241.889 342.819 C 241.661 342.630,241.475 342.577,241.475 342.701 C 241.475 342.826,241.145 342.712,240.741 342.447 C 240.338 342.183,239.345 341.887,238.536 341.790 C 237.727 341.693,236.913 341.488,236.728 341.334 C 236.543 341.181,235.462 340.884,234.325 340.674 C 233.188 340.465,232.258 340.194,232.258 340.073 C 232.258 339.952,231.744 339.757,231.117 339.639 C 230.489 339.521,229.586 339.224,229.111 338.978 C 228.635 338.732,228.112 338.614,227.948 338.715 C 227.784 338.817,227.650 338.764,227.650 338.599 C 227.650 338.314,225.917 337.758,225.422 337.883 C 225.296 337.915,225.192 337.819,225.192 337.670 C 225.192 337.452,222.096 335.998,221.505 335.938 C 221.421 335.930,221.038 335.749,220.654 335.536 C 220.270 335.323,219.821 335.232,219.656 335.334 C 219.490 335.436,219.355 335.376,219.355 335.201 C 219.355 335.025,218.975 334.791,218.510 334.680 C 218.045 334.570,217.458 334.301,217.204 334.082 C 216.951 333.863,216.605 333.653,216.436 333.614 C 215.338 333.361,215.054 333.229,215.054 332.972 C 215.054 332.813,214.931 332.758,214.781 332.851 C 214.632 332.944,214.339 332.815,214.132 332.565 C 213.925 332.316,213.637 332.184,213.493 332.273 C 213.349 332.362,212.679 332.153,212.004 331.809 C 211.329 331.465,210.576 331.183,210.330 331.183 C 210.084 331.183,209.824 331.010,209.753 330.799 C 209.652 330.499,209.511 330.508,209.113 330.836 C 208.771 331.119,208.602 331.142,208.602 330.907 C 208.602 330.713,208.257 330.398,207.834 330.205 C 207.412 330.013,207.066 329.670,207.066 329.444 C 207.066 329.217,206.799 329.032,206.474 329.032 C 206.148 329.032,205.698 328.859,205.475 328.648 C 205.252 328.437,204.654 328.057,204.147 327.804 C 203.641 327.551,203.115 327.171,202.980 326.959 C 202.845 326.748,202.579 326.575,202.390 326.575 C 202.200 326.575,201.797 326.350,201.494 326.075 C 201.190 325.801,200.581 325.576,200.140 325.576 C 199.611 325.576,199.232 325.345,199.029 324.899 C 198.859 324.527,198.248 324.051,197.670 323.842 C 197.093 323.633,196.621 323.327,196.621 323.162 C 196.621 322.996,196.448 322.901,196.237 322.949 C 196.025 322.997,195.356 322.658,194.748 322.194 C 194.141 321.731,193.450 321.349,193.212 321.345 C 192.975 321.341,192.435 321.068,192.012 320.737 C 191.590 320.407,190.812 320.133,190.283 320.130 C 189.755 320.126,189.150 319.916,188.940 319.662 C 188.730 319.409,188.389 319.201,188.182 319.201 C 187.975 319.201,187.555 318.924,187.249 318.585 C 186.942 318.246,186.624 318.035,186.542 318.117 C 186.461 318.199,185.925 317.854,185.352 317.351 C 184.779 316.848,184.054 316.436,183.740 316.436 C 183.426 316.436,183.093 316.239,183.001 315.999 C 182.908 315.758,182.306 315.316,181.662 315.017 C 181.018 314.717,180.380 314.291,180.244 314.069 C 179.966 313.616,177.866 312.662,177.640 312.887 C 177.353 313.175,175.769 312.128,175.577 311.524 C 175.469 311.184,175.124 310.906,174.810 310.906 C 174.495 310.906,173.966 310.561,173.634 310.138 C 173.302 309.716,172.867 309.370,172.668 309.370 C 172.469 309.370,172.127 309.197,171.908 308.986 C 171.025 308.133,169.875 307.218,169.660 307.197 C 169.278 307.159,165.284 302.394,165.284 301.977 C 165.284 301.763,165.198 301.673,165.094 301.778 C 164.852 302.019,162.538 299.517,162.527 299.002 C 162.519 298.629,161.905 298.432,161.905 298.803 " stroke="none" fill="#4470ab" fill-rule="evenodd"></path><path id="path1" d="M0.000 211.982 L 0.000 423.963 200.000 423.963 L 400.000 423.963 400.000 211.982 L 400.000 0.000 200.000 0.000 L 0.000 0.000 0.000 211.982 M116.743 49.350 C 116.997 49.460,117.826 49.657,118.587 49.789 C 120.048 50.041,121.198 50.304,121.198 50.386 C 121.198 50.413,121.486 50.468,121.838 50.508 C 122.753 50.612,129.375 52.251,130.108 52.555 C 130.445 52.695,131.828 53.252,133.180 53.793 C 134.531 54.334,135.845 54.938,136.098 55.137 C 136.352 55.335,137.873 56.020,139.478 56.659 C 141.083 57.297,143.018 58.100,143.779 58.443 C 144.539 58.785,146.060 59.131,147.158 59.212 C 149.167 59.358,151.594 59.997,152.268 60.556 C 152.492 60.742,156.572 60.843,162.875 60.820 C 180.304 60.756,187.863 60.879,188.215 61.231 C 188.332 61.348,188.760 61.444,189.165 61.444 C 189.999 61.444,192.838 62.566,193.573 63.185 C 193.839 63.410,194.239 63.594,194.460 63.594 C 194.681 63.594,195.440 64.113,196.147 64.747 C 196.854 65.380,197.887 66.244,198.442 66.667 C 198.997 67.089,200.093 68.107,200.878 68.928 C 201.662 69.749,203.281 71.408,204.476 72.615 C 205.670 73.821,207.329 75.829,208.162 77.077 C 211.719 82.404,214.026 86.061,214.709 87.452 C 216.362 90.819,217.037 92.058,217.696 92.934 C 218.077 93.441,218.813 94.685,219.332 95.699 C 219.851 96.713,220.900 98.510,221.664 99.693 C 222.429 100.876,223.431 102.448,223.893 103.187 C 224.354 103.926,225.385 105.378,226.184 106.413 C 226.984 107.448,227.640 108.384,227.644 108.493 C 227.647 108.602,228.721 109.782,230.031 111.114 C 231.340 112.446,233.516 114.915,234.866 116.599 C 236.216 118.284,237.668 120.008,238.092 120.430 C 240.010 122.341,241.896 124.701,242.597 126.070 C 243.018 126.891,243.974 128.547,244.723 129.749 C 245.471 130.951,246.083 132.091,246.083 132.283 C 246.083 132.474,246.559 133.254,247.140 134.015 C 248.320 135.560,249.754 138.342,250.876 141.260 C 251.285 142.325,251.811 143.500,252.045 143.872 C 253.057 145.477,256.403 157.222,257.270 162.212 C 257.344 162.634,257.883 164.570,258.469 166.513 C 259.055 168.456,259.700 171.221,259.902 172.657 C 260.104 174.094,260.462 176.375,260.698 177.727 C 260.942 179.120,261.191 183.311,261.273 187.404 C 261.414 194.395,261.678 203.017,261.891 207.611 C 261.949 208.840,262.142 210.022,262.320 210.237 C 262.729 210.730,262.492 217.253,261.843 223.349 C 261.634 225.314,261.610 227.219,261.772 229.032 C 261.817 229.539,261.754 231.198,261.633 232.719 C 261.511 234.240,261.286 237.074,261.132 239.017 C 260.979 240.960,260.763 242.896,260.654 243.318 C 260.544 243.740,260.415 245.538,260.367 247.312 C 260.216 252.890,259.620 262.052,259.135 266.267 C 258.878 268.497,258.698 270.432,258.733 270.568 C 258.769 270.703,258.683 271.782,258.542 272.965 C 258.400 274.147,258.246 275.461,258.199 275.883 C 258.152 276.306,258.039 276.997,257.948 277.419 C 257.596 279.059,257.131 283.603,257.288 283.858 C 257.380 284.006,257.299 284.518,257.109 284.997 C 256.920 285.476,256.717 287.458,256.659 289.401 C 256.601 291.344,256.460 293.487,256.345 294.163 C 255.933 296.597,255.877 297.294,255.776 301.229 C 255.295 319.916,255.756 328.342,257.474 332.258 C 257.622 332.596,257.965 333.547,258.237 334.372 C 259.044 336.822,260.505 339.654,261.596 340.880 C 263.250 342.740,263.260 344.973,261.618 346.237 C 260.538 347.068,260.301 347.080,248.541 346.860 C 237.546 346.655,239.601 348.179,253.109 350.246 C 254.743 350.496,258.356 351.203,261.769 351.941 C 262.181 352.030,263.941 352.298,265.679 352.536 C 269.213 353.019,269.246 353.037,272.239 356.221 C 274.756 358.898,275.808 360.156,276.948 361.851 C 277.440 362.582,278.062 363.342,278.331 363.541 C 278.855 363.928,281.106 367.233,281.106 367.616 C 281.106 367.743,281.299 368.065,281.536 368.332 C 282.898 369.870,283.470 372.655,282.893 374.939 C 282.520 376.416,278.581 379.150,276.861 379.125 C 276.408 379.119,275.138 379.118,274.040 379.123 C 271.496 379.135,266.701 378.555,264.516 377.971 C 263.587 377.723,262.303 377.392,261.664 377.235 C 261.025 377.079,260.264 376.830,259.974 376.683 C 259.684 376.536,259.101 376.275,258.679 376.104 C 255.604 374.856,253.227 373.331,249.309 370.093 C 246.684 367.924,238.435 359.462,235.936 356.375 C 231.090 350.389,227.769 348.506,223.237 349.175 C 217.112 350.078,215.688 351.307,214.006 357.143 C 213.714 358.157,213.374 359.245,213.252 359.562 C 213.129 359.879,213.138 361.123,213.272 362.327 C 214.401 372.470,213.220 378.187,209.960 378.359 C 209.298 378.394,208.134 378.504,207.373 378.602 C 206.613 378.700,202.189 378.871,197.542 378.981 C 192.896 379.091,186.536 379.243,183.410 379.319 C 178.140 379.447,167.300 379.538,161.905 379.499 C 149.379 379.408,149.240 379.393,147.704 377.916 C 147.244 377.474,146.864 376.945,146.860 376.742 C 146.855 376.538,146.514 375.875,146.102 375.268 C 144.565 373.003,147.347 368.309,151.379 366.363 C 152.015 366.056,152.891 365.625,153.328 365.404 C 154.093 365.017,156.150 364.443,157.479 364.246 C 157.834 364.193,158.288 364.048,158.490 363.923 C 159.244 363.457,164.994 362.634,166.271 362.809 C 166.995 362.908,168.625 362.883,169.892 362.752 C 176.386 362.083,180.824 361.514,181.465 361.271 C 181.859 361.121,182.181 361.092,182.181 361.206 C 182.181 361.320,182.347 361.247,182.550 361.045 C 182.753 360.842,183.281 360.676,183.723 360.676 C 184.202 360.676,184.968 360.272,185.617 359.677 L 186.707 358.679 186.599 355.760 C 186.178 344.346,185.441 339.619,183.404 335.257 C 183.069 334.541,182.796 333.873,182.796 333.774 C 182.796 333.433,180.104 330.103,177.166 326.810 C 175.549 324.996,173.845 322.853,173.380 322.048 C 172.916 321.242,171.676 319.266,170.625 317.656 C 169.004 315.171,167.916 313.115,166.486 309.831 C 166.339 309.493,166.161 308.871,166.092 308.449 C 165.940 307.531,164.968 305.376,164.464 304.842 C 164.266 304.632,163.936 303.941,163.731 303.305 C 163.525 302.670,162.946 301.331,162.445 300.329 C 160.811 297.065,157.439 287.927,157.752 287.614 C 157.836 287.530,157.781 287.310,157.628 287.125 C 157.384 286.830,156.825 284.523,156.060 280.659 C 155.928 279.991,155.868 279.196,155.926 278.893 C 155.985 278.589,155.937 278.341,155.820 278.341 C 155.703 278.340,155.587 277.822,155.564 277.189 C 155.540 276.555,155.431 275.622,155.321 275.115 C 154.773 272.587,154.159 270.136,153.936 269.585 C 153.800 269.247,153.518 268.141,153.309 267.127 C 152.286 262.143,151.760 259.899,151.203 258.142 C 150.868 257.086,150.717 256.147,150.867 256.054 C 151.023 255.958,151.011 255.628,150.839 255.285 C 150.673 254.955,150.397 254.407,150.226 254.067 C 150.054 253.727,149.699 252.794,149.437 251.993 C 149.175 251.193,148.762 250.102,148.520 249.570 C 148.278 249.037,148.080 248.379,148.080 248.106 C 148.080 247.609,147.980 247.363,147.048 245.575 C 146.771 245.042,146.544 244.460,146.544 244.283 C 146.544 244.105,146.107 243.228,145.573 242.333 C 143.702 239.200,140.296 231.885,140.310 231.029 C 140.314 230.776,140.152 230.361,139.949 230.108 C 139.234 229.213,136.943 223.064,136.859 221.813 C 136.842 221.559,136.744 221.144,136.640 220.891 C 136.205 219.826,135.804 218.189,135.654 216.873 C 135.567 216.100,135.158 214.302,134.747 212.879 C 134.336 211.456,133.843 209.117,133.652 207.680 C 133.461 206.244,133.182 204.447,133.033 203.687 C 132.440 200.671,132.117 196.096,131.938 188.172 C 131.834 183.610,131.686 178.663,131.609 177.178 C 131.487 174.856,131.977 154.537,132.262 150.077 C 132.477 146.705,132.782 143.466,133.182 140.298 C 133.413 138.467,133.537 136.801,133.458 136.594 C 132.865 135.049,136.913 124.041,139.816 119.308 C 141.691 116.250,142.212 115.331,143.621 112.596 C 145.010 109.901,147.122 106.605,147.460 106.605 C 147.577 106.605,147.936 106.066,148.257 105.407 C 148.577 104.748,149.221 103.953,149.688 103.640 C 150.182 103.309,150.536 102.791,150.537 102.399 C 150.537 102.029,150.682 101.637,150.857 101.528 C 151.033 101.420,151.099 101.086,151.004 100.787 C 150.909 100.487,150.947 99.932,151.087 99.553 C 151.513 98.401,150.706 95.384,148.810 91.044 C 148.577 90.512,148.387 89.867,148.387 89.611 C 148.387 89.354,148.241 89.096,148.063 89.037 C 147.885 88.978,147.698 88.724,147.649 88.474 C 147.494 87.695,147.066 86.842,146.502 86.188 C 146.205 85.843,145.159 84.295,144.179 82.749 C 142.200 79.628,138.157 75.155,136.231 73.958 C 135.543 73.530,134.576 72.752,134.081 72.228 C 133.586 71.704,133.059 71.275,132.909 71.275 C 132.759 71.275,132.333 70.949,131.964 70.550 C 131.594 70.151,130.940 69.632,130.509 69.398 C 127.781 67.909,127.258 67.580,126.872 67.116 C 126.636 66.831,125.329 66.069,123.968 65.423 C 122.608 64.776,120.944 63.870,120.271 63.410 C 119.598 62.949,117.873 62.067,116.436 61.449 C 110.679 58.974,107.031 55.475,107.647 53.020 C 108.440 49.859,113.354 47.877,116.743 49.350 " stroke="none" fill="#fbfbfb" fill-rule="evenodd"></path><path id="path2" d="M160.061 61.137 C 161.112 61.473,161.920 61.473,161.137 61.137 C 160.799 60.991,160.246 60.877,159.908 60.882 C 159.414 60.889,159.444 60.939,160.061 61.137 M165.213 61.052 C 165.765 61.121,166.595 61.119,167.056 61.049 C 167.518 60.979,167.066 60.923,166.052 60.925 C 165.038 60.926,164.661 60.984,165.213 61.052 M184.178 61.190 C 187.164 61.570,188.422 61.541,188.148 61.097 C 188.065 60.963,187.691 60.967,187.316 61.107 C 186.942 61.247,186.359 61.251,186.022 61.117 C 185.684 60.983,184.647 60.883,183.717 60.895 L 182.028 60.917 184.178 61.190 M189.555 61.751 C 189.808 61.915,190.292 62.041,190.630 62.032 L 191.244 62.015 190.630 61.751 C 189.711 61.356,188.944 61.356,189.555 61.751 M155.690 64.845 C 154.545 65.511,153.486 67.858,153.943 68.712 C 154.359 69.489,154.378 70.730,154.089 77.880 C 154.020 79.570,153.815 81.697,153.633 82.607 C 152.961 85.972,153.443 89.754,154.610 90.272 C 154.738 90.329,154.764 90.502,154.669 90.656 C 154.573 90.811,154.642 90.937,154.821 90.937 C 155.000 90.937,155.146 91.144,155.146 91.398 C 155.146 91.651,155.269 91.859,155.419 91.859 C 155.569 91.859,155.673 91.618,155.649 91.324 C 155.626 91.030,155.918 90.652,156.298 90.483 C 156.689 90.310,156.989 89.904,156.989 89.550 C 156.989 89.205,157.192 88.634,157.439 88.281 C 157.687 87.927,157.805 87.554,157.703 87.452 C 157.600 87.349,157.676 87.072,157.872 86.837 C 158.107 86.553,158.134 86.160,157.953 85.677 C 157.761 85.168,157.818 84.672,158.139 84.044 C 158.494 83.350,158.521 83.012,158.253 82.584 C 158.062 82.278,158.014 82.028,158.147 82.028 C 158.280 82.028,158.358 81.471,158.320 80.791 C 158.280 80.074,158.373 79.630,158.542 79.734 C 158.924 79.970,158.910 79.674,158.504 78.916 C 158.282 78.500,158.276 78.181,158.486 77.927 C 158.674 77.701,158.689 77.377,158.524 77.110 C 158.354 76.835,158.377 76.590,158.583 76.462 C 158.817 76.317,158.822 75.987,158.598 75.346 C 158.301 74.492,158.546 71.988,158.999 71.254 C 159.096 71.097,159.047 70.968,158.889 70.968 C 158.730 70.968,158.644 70.104,158.696 69.048 C 158.874 65.473,157.620 63.720,155.690 64.845 M150.420 94.920 C 150.550 95.168,150.752 95.859,150.869 96.457 C 151.080 97.536,151.082 97.537,151.117 96.602 C 151.136 96.086,150.934 95.394,150.668 95.066 C 150.402 94.738,150.291 94.673,150.420 94.920 M223.041 102.227 C 223.443 102.776,223.819 103.226,223.878 103.226 C 224.111 103.226,223.350 102.074,222.846 101.664 C 222.514 101.395,222.588 101.609,223.041 102.227 M149.352 103.867 C 148.953 104.190,148.790 104.455,148.989 104.455 C 149.383 104.455,150.376 103.575,150.190 103.391 C 150.128 103.329,149.750 103.543,149.352 103.867 M227.957 109.239 C 227.957 109.342,228.846 110.286,229.933 111.335 C 231.019 112.385,231.791 113.029,231.648 112.766 C 231.339 112.200,227.957 108.968,227.957 109.239 M239.500 122.302 C 239.995 122.910,240.461 123.355,240.537 123.291 C 240.613 123.227,240.208 122.731,239.638 122.187 L 238.601 121.198 239.500 122.302 M132.807 143.932 C 132.809 144.777,132.869 145.086,132.939 144.619 C 133.010 144.152,133.008 143.461,132.935 143.083 C 132.862 142.705,132.804 143.088,132.807 143.932 M132.156 152.688 C 132.124 153.449,132.032 154.624,131.952 155.300 L 131.807 156.528 132.122 155.300 C 132.295 154.624,132.387 153.449,132.326 152.688 L 132.215 151.306 132.156 152.688 M174.808 154.992 C 174.598 155.246,174.199 155.453,173.923 155.453 C 173.646 155.453,173.238 155.744,173.016 156.100 C 172.794 156.455,172.726 156.677,172.865 156.592 C 173.004 156.507,173.588 156.830,174.161 157.311 L 175.205 158.184 174.386 158.389 C 173.936 158.502,173.225 158.529,172.805 158.449 C 172.386 158.369,172.043 158.437,172.043 158.601 C 172.043 158.764,171.836 158.819,171.582 158.721 C 171.329 158.624,171.121 158.656,171.121 158.792 C 171.121 159.339,164.724 159.379,163.308 158.840 C 162.852 158.667,161.667 158.525,160.674 158.525 C 159.681 158.525,158.783 158.387,158.679 158.218 C 158.575 158.049,158.229 157.911,157.910 157.911 C 157.592 157.911,157.127 157.619,156.878 157.263 C 156.628 156.907,156.284 156.702,156.113 156.807 C 155.943 156.913,155.715 156.857,155.607 156.682 C 155.499 156.508,155.282 156.444,155.125 156.542 C 154.967 156.639,154.839 156.584,154.839 156.420 C 154.839 155.771,151.557 157.195,151.366 157.927 C 151.102 158.937,153.135 161.136,155.300 162.180 C 157.925 163.445,160.097 164.363,160.470 164.363 C 160.685 164.363,160.992 164.480,161.152 164.624 C 161.672 165.091,164.146 165.581,166.820 165.747 C 168.257 165.836,169.807 165.985,170.266 166.079 C 170.725 166.173,172.107 166.292,173.338 166.344 C 174.569 166.395,175.938 166.502,176.380 166.582 C 177.815 166.841,182.444 165.943,183.110 165.277 C 183.444 164.943,183.856 164.670,184.025 164.670 C 184.194 164.670,184.332 164.279,184.332 163.802 C 184.332 163.284,184.628 162.656,185.064 162.246 C 187.990 159.497,185.550 155.766,180.952 155.958 C 178.660 156.054,176.711 155.623,176.103 154.886 C 175.873 154.607,175.772 154.551,175.879 154.762 C 175.995 154.991,175.873 155.146,175.576 155.146 C 175.303 155.146,175.164 155.008,175.269 154.839 C 175.560 154.367,175.238 154.474,174.808 154.992 M258.108 165.899 C 258.108 166.152,258.227 166.636,258.372 166.974 C 258.538 167.361,258.636 167.418,258.636 167.127 C 258.636 166.874,258.517 166.390,258.372 166.052 C 258.205 165.665,258.108 165.608,258.108 165.899 M131.611 172.504 C 131.612 174.869,131.660 175.797,131.718 174.564 C 131.777 173.332,131.776 171.396,131.718 170.263 C 131.659 169.130,131.611 170.138,131.611 172.504 M131.561 177.880 C 131.561 178.472,131.625 178.714,131.702 178.418 C 131.779 178.122,131.779 177.638,131.702 177.343 C 131.625 177.047,131.561 177.289,131.561 177.880 M132.215 187.404 C 132.215 189.009,132.267 189.666,132.330 188.863 C 132.394 188.061,132.394 186.747,132.330 185.945 C 132.267 185.142,132.215 185.799,132.215 187.404 M261.220 186.790 C 261.220 187.550,261.280 187.861,261.354 187.481 C 261.427 187.101,261.427 186.478,261.354 186.098 C 261.280 185.718,261.220 186.029,261.220 186.790 M261.252 194.316 C 261.252 196.175,261.303 196.896,261.364 195.918 C 261.425 194.940,261.425 193.420,261.363 192.539 C 261.301 191.658,261.251 192.458,261.252 194.316 M132.218 195.084 C 132.218 196.859,132.269 197.584,132.331 196.697 C 132.393 195.810,132.393 194.359,132.331 193.472 C 132.269 192.584,132.218 193.310,132.218 195.084 M261.565 202.919 C 261.566 205.284,261.614 206.211,261.672 204.979 C 261.731 203.746,261.730 201.811,261.671 200.678 C 261.613 199.545,261.565 200.553,261.565 202.919 M134.922 213.210 C 134.937 214.009,135.421 215.320,135.432 214.593 C 135.437 214.255,135.322 213.702,135.177 213.364 C 135.015 212.988,134.916 212.928,134.922 213.210 M135.834 218.126 C 135.834 218.379,135.953 218.863,136.098 219.201 C 136.265 219.589,136.362 219.645,136.362 219.355 C 136.362 219.101,136.244 218.618,136.098 218.280 C 135.932 217.892,135.834 217.835,135.834 218.126 M136.713 221.869 C 136.713 221.968,136.927 222.514,137.189 223.083 C 137.663 224.113,137.664 224.114,137.474 223.195 C 137.310 222.399,136.713 221.360,136.713 221.869 M260.901 238.402 C 260.901 238.994,260.964 239.236,261.041 238.940 C 261.119 238.644,261.119 238.161,261.041 237.865 C 260.964 237.569,260.901 237.811,260.901 238.402 M146.060 243.077 C 146.326 243.535,146.544 244.097,146.544 244.324 C 146.544 244.551,146.744 245.005,146.989 245.333 C 147.385 245.865,147.393 245.811,147.062 244.832 C 146.858 244.228,146.440 243.399,146.133 242.989 L 145.575 242.243 146.060 243.077 M259.365 262.673 C 259.365 263.264,259.428 263.506,259.505 263.210 C 259.582 262.915,259.582 262.431,259.505 262.135 C 259.428 261.839,259.365 262.081,259.365 262.673 M166.120 308.856 C 166.288 309.732,166.675 310.161,166.929 309.751 C 167.012 309.616,166.828 309.173,166.520 308.766 L 165.961 308.025 166.120 308.856 M255.371 311.828 C 255.371 312.419,255.434 312.661,255.511 312.366 C 255.589 312.070,255.589 311.586,255.511 311.290 C 255.434 310.995,255.371 311.237,255.371 311.828 M185.632 342.857 C 185.632 343.449,185.695 343.690,185.772 343.395 C 185.850 343.099,185.850 342.615,185.772 342.320 C 185.695 342.024,185.632 342.266,185.632 342.857 M245.242 346.488 C 245.015 346.632,245.326 346.739,246.010 346.754 C 246.883 346.772,247.011 346.718,246.544 346.529 C 245.743 346.204,245.690 346.203,245.242 346.488 M247.696 346.756 C 247.992 346.833,248.475 346.833,248.771 346.756 C 249.067 346.678,248.825 346.615,248.233 346.615 C 247.642 346.615,247.400 346.678,247.696 346.756 M242.780 347.063 C 243.076 347.140,243.560 347.140,243.856 347.063 C 244.151 346.985,243.909 346.922,243.318 346.922 C 242.727 346.922,242.485 346.985,242.780 347.063 M241.170 347.615 C 240.777 348.090,241.561 348.710,242.000 348.271 C 242.105 348.166,241.927 348.075,241.603 348.070 C 241.026 348.061,241.026 348.051,241.610 347.609 C 241.938 347.361,242.059 347.158,241.878 347.158 C 241.698 347.158,241.379 347.364,241.170 347.615 M224.040 348.906 C 224.336 348.983,224.820 348.983,225.115 348.906 C 225.411 348.829,225.169 348.766,224.578 348.766 C 223.986 348.766,223.744 348.829,224.040 348.906 M247.773 349.616 C 248.280 349.745,249.109 349.851,249.616 349.852 C 250.391 349.852,250.342 349.812,249.309 349.598 C 247.753 349.276,246.495 349.291,247.773 349.616 M252.461 350.448 C 252.843 350.521,253.396 350.518,253.690 350.441 C 253.984 350.365,253.671 350.304,252.995 350.308 C 252.320 350.311,252.079 350.374,252.461 350.448 M231.476 351.694 C 232.811 353.126,232.937 353.213,232.676 352.535 C 232.579 352.281,232.368 352.074,232.207 352.074 C 232.046 352.074,232.014 351.901,232.136 351.690 C 232.257 351.478,232.241 351.411,232.100 351.539 C 231.958 351.667,231.487 351.462,231.052 351.082 C 230.617 350.703,230.808 350.978,231.476 351.694 M264.823 352.704 C 265.584 352.839,266.621 352.943,267.127 352.934 C 267.807 352.923,267.686 352.854,266.667 352.672 C 265.906 352.537,264.869 352.434,264.363 352.442 C 263.683 352.454,263.804 352.522,264.823 352.704 M269.170 353.569 C 269.382 353.908,269.804 354.250,270.108 354.329 C 270.854 354.524,270.813 354.453,269.723 353.647 C 268.864 353.011,268.818 353.005,269.170 353.569 M235.607 355.981 C 236.151 356.694,237.175 357.878,237.883 358.613 C 238.591 359.348,238.894 359.595,238.556 359.162 C 238.218 358.728,237.837 358.327,237.709 358.270 C 237.582 358.212,237.512 358.074,237.556 357.961 C 237.599 357.849,236.956 357.066,236.126 356.221 C 234.654 354.721,234.641 354.716,235.607 355.981 M186.578 356.458 C 186.595 357.211,186.691 357.462,186.851 357.176 C 186.986 356.934,186.974 356.413,186.824 356.018 C 186.590 355.400,186.555 355.462,186.578 356.458 M272.415 356.989 C 272.503 357.327,272.723 357.604,272.904 357.604 C 273.085 357.604,273.587 357.913,274.020 358.291 C 274.453 358.669,274.261 358.392,273.594 357.676 C 272.191 356.173,272.203 356.180,272.415 356.989 M212.981 361.444 C 212.984 362.120,213.047 362.360,213.121 361.978 C 213.194 361.596,213.191 361.043,213.114 360.749 C 213.037 360.455,212.977 360.768,212.981 361.444 M239.905 360.855 C 240.074 361.207,240.462 361.690,240.767 361.930 C 241.261 362.318,241.280 362.313,240.940 361.876 C 240.730 361.607,240.626 361.296,240.709 361.185 C 240.792 361.074,240.770 361.050,240.660 361.132 C 240.550 361.214,240.266 361.041,240.029 360.748 C 239.635 360.262,239.625 360.271,239.905 360.855 M182.676 360.928 C 182.591 361.066,182.928 361.119,183.426 361.046 C 183.924 360.973,184.332 360.860,184.332 360.795 C 184.332 360.561,182.829 360.681,182.676 360.928 M176.882 362.122 C 177.262 362.195,177.884 362.195,178.264 362.122 C 178.644 362.048,178.333 361.988,177.573 361.988 C 176.813 361.988,176.502 362.048,176.882 362.122 M241.475 362.308 C 241.475 362.361,241.924 362.810,242.473 363.307 L 243.472 364.209 242.569 363.210 C 241.728 362.280,241.475 362.071,241.475 362.308 M164.993 362.843 C 165.403 363.103,167.697 363.273,167.409 363.022 C 167.339 362.961,166.666 362.832,165.915 362.736 C 165.031 362.623,164.705 362.661,164.993 362.843 M169.124 362.826 C 167.650 363.029,167.638 363.038,168.817 363.063 C 169.493 363.077,170.668 362.977,171.429 362.842 C 173.249 362.518,171.460 362.506,169.124 362.826 M213.303 364.977 C 213.303 365.906,213.360 366.286,213.430 365.822 C 213.501 365.357,213.501 364.597,213.430 364.132 C 213.360 363.667,213.303 364.048,213.303 364.977 M245.622 366.820 C 246.625 367.834,247.515 368.664,247.600 368.664 C 247.684 368.664,246.933 367.834,245.929 366.820 C 244.926 365.806,244.036 364.977,243.952 364.977 C 243.867 364.977,244.619 365.806,245.622 366.820 M213.595 370.968 C 213.599 371.644,213.661 371.884,213.735 371.502 C 213.808 371.120,213.806 370.567,213.729 370.273 C 213.652 369.979,213.592 370.292,213.595 370.968 M282.691 374.362 C 282.495 374.792,282.335 375.299,282.335 375.488 C 282.335 375.917,282.739 375.539,282.826 375.030 C 282.861 374.823,282.987 374.412,283.106 374.117 C 283.444 373.277,283.090 373.486,282.691 374.362 M145.929 375.056 C 145.929 375.237,146.070 375.473,146.242 375.579 C 146.413 375.685,146.461 375.922,146.348 376.106 C 146.225 376.305,146.285 376.351,146.496 376.220 C 146.719 376.082,146.851 376.229,146.851 376.615 C 146.851 376.953,146.976 377.307,147.130 377.402 C 147.283 377.496,147.330 377.263,147.234 376.882 C 147.038 376.099,145.929 374.548,145.929 375.056 M258.543 376.066 C 258.638 376.219,258.956 376.344,259.250 376.344 C 259.544 376.344,259.916 376.467,260.077 376.617 C 260.237 376.767,260.714 376.979,261.137 377.089 C 261.651 377.222,261.538 377.097,260.793 376.709 C 259.452 376.010,258.306 375.683,258.543 376.066 M265.284 378.185 C 265.871 378.440,268.136 378.614,267.870 378.384 C 267.800 378.324,267.051 378.194,266.206 378.096 C 265.218 377.982,264.889 378.014,265.284 378.185 M195.699 378.804 C 195.344 379.034,195.428 379.089,196.061 379.041 C 196.513 379.007,196.816 378.870,196.734 378.737 C 196.538 378.420,196.262 378.437,195.699 378.804 M200.705 378.723 C 202.023 378.781,204.096 378.781,205.314 378.722 C 206.531 378.664,205.453 378.617,202.919 378.617 C 200.384 378.618,199.388 378.666,200.705 378.723 M268.587 378.706 C 268.882 378.784,269.366 378.784,269.662 378.706 C 269.958 378.629,269.716 378.566,269.124 378.566 C 268.533 378.566,268.291 378.629,268.587 378.706 M160.676 379.134 C 159.850 379.277,160.046 379.325,161.521 379.343 C 162.577 379.356,163.441 379.324,163.441 379.273 C 163.441 379.052,161.665 378.963,160.676 379.134 M151.075 379.331 C 151.624 379.399,152.523 379.399,153.072 379.331 C 153.621 379.263,153.172 379.207,152.074 379.207 C 150.975 379.207,150.526 379.263,151.075 379.331 M156.162 379.306 C 156.254 379.398,157.047 379.522,157.924 379.583 C 158.801 379.644,159.443 379.617,159.350 379.524 C 159.257 379.432,158.464 379.307,157.588 379.247 C 156.712 379.188,156.070 379.214,156.162 379.306 M165.253 379.508 C 165.396 379.651,165.980 379.720,166.551 379.661 C 167.563 379.557,167.556 379.551,166.291 379.401 C 165.577 379.317,165.110 379.365,165.253 379.508 M169.816 379.644 C 171.041 379.703,173.045 379.703,174.270 379.644 C 175.495 379.586,174.493 379.538,172.043 379.538 C 169.593 379.538,168.591 379.586,169.816 379.644 " stroke="none" fill="#88b9f2" fill-rule="evenodd"></path><path id="path3" d="M111.210 49.422 C 106.488 50.609,107.007 55.918,112.135 58.898 C 112.896 59.340,113.587 59.796,113.671 59.913 C 113.821 60.119,114.553 60.460,117.358 61.630 C 118.118 61.947,119.570 62.723,120.584 63.356 C 122.468 64.531,124.809 65.735,125.252 65.757 C 125.388 65.764,125.978 66.179,126.563 66.679 C 127.148 67.179,127.805 67.588,128.022 67.588 C 128.240 67.588,128.418 67.717,128.418 67.875 C 128.418 68.196,129.634 68.679,130.108 68.545 C 130.276 68.498,130.319 68.555,130.201 68.673 C 130.004 68.869,132.274 70.692,133.327 71.183 C 133.576 71.299,134.111 71.787,134.515 72.267 C 134.919 72.748,135.614 73.332,136.058 73.566 C 136.503 73.800,137.419 74.520,138.095 75.166 C 138.771 75.812,139.438 76.303,139.577 76.258 C 139.717 76.212,139.750 76.306,139.651 76.465 C 139.553 76.625,139.819 77.029,140.243 77.362 C 140.667 77.696,141.014 78.040,141.014 78.127 C 141.014 78.214,141.668 78.954,142.467 79.772 C 143.266 80.590,143.882 81.434,143.835 81.648 C 143.788 81.861,143.963 82.118,144.223 82.218 C 144.484 82.317,144.621 82.522,144.529 82.672 C 144.436 82.822,144.713 83.297,145.145 83.729 C 145.576 84.160,145.929 84.710,145.929 84.951 C 145.929 85.191,146.108 85.319,146.327 85.235 C 146.703 85.091,147.159 85.890,148.092 88.326 C 148.287 88.833,148.580 89.593,148.745 90.015 C 148.910 90.438,149.000 90.797,148.946 90.813 C 148.892 90.829,149.002 91.037,149.190 91.274 C 149.378 91.511,149.623 92.091,149.736 92.562 C 150.002 93.674,150.425 93.386,150.902 91.769 C 151.111 91.058,151.459 90.131,151.674 89.708 C 151.890 89.286,151.964 88.906,151.840 88.863 C 151.562 88.770,151.621 86.619,151.932 85.475 C 152.484 83.444,152.642 72.570,152.138 71.273 C 151.756 70.289,151.651 63.340,152.003 62.348 C 152.377 61.297,152.151 60.512,151.543 60.745 C 151.249 60.858,151.129 60.808,151.245 60.620 C 151.501 60.206,149.612 59.657,147.140 59.427 C 145.897 59.312,144.467 58.910,143.294 58.347 C 142.267 57.854,141.259 57.450,141.054 57.450 C 140.850 57.450,140.169 57.188,139.542 56.869 C 138.915 56.549,138.264 56.267,138.095 56.243 C 137.926 56.219,136.671 55.659,135.306 54.998 C 130.944 52.887,128.520 52.161,118.960 50.101 C 114.704 49.184,112.814 49.018,111.210 49.422 M147.542 106.907 C 146.516 107.863,145.161 109.965,144.065 112.299 C 143.513 113.476,142.739 114.867,142.345 115.390 C 141.951 115.913,141.628 116.429,141.628 116.536 C 141.628 116.644,141.117 117.529,140.493 118.504 C 138.817 121.121,135.618 128.299,135.184 130.416 C 134.976 131.429,134.698 132.535,134.565 132.873 C 133.781 134.863,133.479 136.713,133.937 136.713 C 134.317 136.713,135.700 138.086,136.812 139.568 C 137.289 140.204,137.969 140.994,138.323 141.324 C 138.676 141.653,139.185 142.256,139.452 142.663 C 139.918 143.372,145.533 148.293,146.423 148.771 C 146.658 148.898,147.093 149.137,147.389 149.303 C 147.684 149.469,148.479 149.885,149.155 150.226 C 151.468 151.395,153.096 152.358,153.816 152.984 C 154.212 153.328,154.697 153.610,154.894 153.610 C 155.090 153.610,155.469 153.798,155.736 154.029 C 156.003 154.259,156.912 154.688,157.757 154.983 C 158.602 155.277,159.570 155.631,159.908 155.769 C 161.200 156.296,166.007 156.803,169.370 156.766 C 171.043 156.748,173.272 156.063,173.272 155.567 C 173.272 155.335,173.473 155.146,173.718 155.146 C 176.064 155.146,176.423 153.055,174.481 150.705 C 173.794 149.873,173.082 148.908,172.900 148.560 C 172.550 147.893,170.713 145.595,169.079 143.779 C 168.546 143.187,167.525 141.943,166.810 141.014 C 166.094 140.084,165.355 139.186,165.166 139.017 C 164.978 138.848,164.412 138.157,163.909 137.481 C 163.406 136.805,162.180 135.397,161.183 134.351 C 160.187 133.306,159.114 132.027,158.800 131.510 C 158.485 130.992,158.102 130.568,157.948 130.568 C 156.098 130.568,151.157 115.209,151.153 109.444 C 151.151 107.018,149.026 105.525,147.542 106.907 M248.410 210.164 C 246.877 210.432,245.069 210.803,244.393 210.990 C 243.717 211.177,242.036 211.555,240.658 211.829 C 239.279 212.104,237.274 212.603,236.203 212.938 C 235.132 213.274,233.909 213.611,233.487 213.688 C 232.077 213.944,229.961 214.493,229.339 214.764 C 229.002 214.912,227.826 215.326,226.728 215.684 C 224.753 216.329,222.523 217.178,220.737 217.964 C 218.753 218.837,216.354 219.684,214.593 220.132 C 212.395 220.691,208.264 222.314,204.455 224.115 C 200.425 226.019,195.254 228.098,193.851 228.378 C 193.431 228.462,191.843 228.945,190.323 229.452 C 188.802 229.958,186.797 230.603,185.868 230.884 C 184.939 231.166,182.865 232.022,181.260 232.787 C 174.416 236.048,171.991 237.153,169.278 238.250 C 168.180 238.693,166.382 239.475,165.284 239.987 C 164.186 240.499,162.711 241.186,162.006 241.513 C 160.384 242.266,158.174 242.941,154.685 243.748 C 151.739 244.430,148.964 246.080,148.498 247.426 C 148.140 248.459,148.187 248.666,148.760 248.581 C 148.881 248.563,148.900 248.756,148.802 249.009 C 148.705 249.263,148.763 249.641,148.932 249.850 C 149.100 250.059,149.332 250.714,149.447 251.306 C 149.639 252.299,149.854 252.873,150.832 255.009 C 151.030 255.441,151.160 255.925,151.120 256.085 C 151.017 256.503,151.498 258.777,151.767 259.140 C 151.891 259.309,152.171 260.415,152.388 261.598 C 152.604 262.780,153.106 265.042,153.503 266.623 C 153.900 268.205,154.224 269.802,154.224 270.172 C 154.224 270.542,154.357 270.978,154.519 271.140 C 154.682 271.302,154.878 271.948,154.956 272.574 C 155.034 273.200,155.170 273.830,155.259 273.974 C 155.477 274.327,155.693 275.546,156.072 278.561 C 156.247 279.950,156.511 281.678,156.660 282.401 C 157.469 286.343,157.715 287.250,157.971 287.250 C 158.127 287.250,158.167 287.392,158.060 287.565 C 157.867 287.877,158.417 289.648,159.440 292.012 C 159.732 292.688,160.213 293.932,160.508 294.777 C 161.300 297.043,162.027 298.610,162.289 298.614 C 162.416 298.616,162.523 298.790,162.527 299.002 C 162.538 299.517,164.852 302.019,165.094 301.778 C 165.198 301.673,165.284 301.763,165.284 301.977 C 165.284 302.394,169.278 307.159,169.660 307.197 C 169.875 307.218,171.025 308.133,171.908 308.986 C 172.127 309.197,172.469 309.370,172.668 309.370 C 172.867 309.370,173.302 309.716,173.634 310.138 C 173.966 310.561,174.495 310.906,174.810 310.906 C 175.124 310.906,175.469 311.184,175.577 311.524 C 175.769 312.128,177.353 313.175,177.640 312.887 C 177.866 312.662,179.966 313.616,180.244 314.069 C 180.380 314.291,181.018 314.717,181.662 315.017 C 182.306 315.316,182.908 315.758,183.001 315.999 C 183.093 316.239,183.426 316.436,183.740 316.436 C 184.054 316.436,184.779 316.848,185.352 317.351 C 185.925 317.854,186.461 318.199,186.542 318.117 C 186.624 318.035,186.942 318.246,187.249 318.585 C 187.555 318.924,187.975 319.201,188.182 319.201 C 188.389 319.201,188.730 319.409,188.940 319.662 C 189.150 319.916,189.755 320.126,190.283 320.130 C 190.812 320.133,191.590 320.407,192.012 320.737 C 192.435 321.068,192.975 321.341,193.212 321.345 C 193.450 321.349,194.141 321.731,194.748 322.194 C 195.356 322.658,196.025 322.997,196.237 322.949 C 196.448 322.901,196.621 322.996,196.621 323.162 C 196.621 323.327,197.093 323.633,197.670 323.842 C 198.248 324.051,198.859 324.527,199.029 324.899 C 199.232 325.345,199.611 325.576,200.140 325.576 C 200.581 325.576,201.190 325.801,201.494 326.075 C 201.797 326.350,202.200 326.575,202.390 326.575 C 202.579 326.575,202.845 326.748,202.980 326.959 C 203.115 327.171,203.641 327.551,204.147 327.804 C 204.654 328.057,205.252 328.437,205.475 328.648 C 205.698 328.859,206.148 329.032,206.474 329.032 C 206.799 329.032,207.066 329.217,207.066 329.444 C 207.066 329.670,207.412 330.013,207.834 330.205 C 208.257 330.398,208.602 330.713,208.602 330.907 C 208.602 331.142,208.771 331.119,209.113 330.836 C 209.511 330.508,209.652 330.499,209.753 330.799 C 209.824 331.010,210.084 331.183,210.330 331.183 C 210.576 331.183,211.329 331.465,212.004 331.809 C 212.679 332.153,213.349 332.362,213.493 332.273 C 213.637 332.184,213.925 332.316,214.132 332.565 C 214.339 332.815,214.632 332.944,214.781 332.851 C 214.931 332.758,215.054 332.813,215.054 332.972 C 215.054 333.238,215.858 333.581,216.327 333.515 C 216.436 333.500,216.782 333.710,217.095 333.983 C 217.409 334.256,218.045 334.570,218.510 334.680 C 218.975 334.791,219.355 335.025,219.355 335.201 C 219.355 335.376,219.490 335.436,219.656 335.334 C 219.821 335.232,220.270 335.323,220.654 335.536 C 221.038 335.749,221.421 335.930,221.505 335.938 C 222.096 335.998,225.192 337.452,225.192 337.670 C 225.192 337.819,225.296 337.915,225.422 337.883 C 225.917 337.758,227.650 338.314,227.650 338.599 C 227.650 338.764,227.784 338.817,227.948 338.715 C 228.112 338.614,228.635 338.732,229.111 338.978 C 229.586 339.224,230.489 339.521,231.117 339.639 C 231.744 339.757,232.258 339.952,232.258 340.073 C 232.258 340.194,233.188 340.465,234.325 340.674 C 235.462 340.884,236.543 341.181,236.728 341.334 C 236.913 341.488,237.727 341.693,238.536 341.790 C 239.345 341.887,240.338 342.183,240.741 342.447 C 241.145 342.712,241.475 342.826,241.475 342.701 C 241.475 342.577,241.661 342.630,241.889 342.819 C 242.118 343.008,242.757 343.110,243.311 343.046 C 243.865 342.981,244.750 343.040,245.278 343.177 C 245.805 343.314,247.064 343.516,248.076 343.626 C 249.088 343.736,250.014 343.984,250.133 344.178 C 250.266 344.392,251.456 344.556,253.174 344.598 C 256.350 344.676,256.836 344.789,256.836 345.455 C 256.836 346.772,260.272 347.068,261.692 345.872 C 263.038 344.740,262.973 341.321,261.605 341.321 C 261.348 341.321,261.137 341.135,261.137 340.908 C 261.137 340.681,260.791 340.093,260.369 339.602 C 259.947 339.111,259.601 338.499,259.601 338.240 C 259.601 337.982,259.393 337.475,259.139 337.112 C 257.645 334.980,255.951 328.335,255.630 323.349 C 255.098 315.112,255.064 313.645,255.323 310.138 C 255.460 308.280,255.601 304.270,255.637 301.229 C 255.672 298.187,255.827 295.353,255.982 294.931 C 256.138 294.508,256.327 292.366,256.403 290.169 C 256.479 287.972,256.748 284.654,257.001 282.796 C 257.953 275.785,258.085 274.726,258.396 271.582 C 258.571 269.808,258.852 267.043,259.020 265.438 C 259.189 263.833,259.463 260.169,259.630 257.296 C 259.796 254.424,259.999 251.382,260.080 250.538 C 260.250 248.774,260.258 246.821,260.101 245.929 C 260.042 245.591,260.103 245.019,260.237 244.657 C 260.460 244.058,260.742 241.015,261.329 232.873 C 261.445 231.267,261.531 229.747,261.521 229.493 C 261.401 226.473,261.424 224.552,261.583 224.294 C 261.690 224.121,261.840 222.559,261.916 220.822 C 261.992 219.086,262.125 216.058,262.211 214.094 C 262.342 211.113,262.290 210.458,261.893 210.129 C 261.166 209.525,251.933 209.549,248.410 210.164 " stroke="none" fill="#0f2957" fill-rule="evenodd"></path><path id="path4" d="M262.136 215.207 C 262.139 215.883,262.202 216.124,262.276 215.741 C 262.349 215.359,262.346 214.806,262.269 214.513 C 262.193 214.219,262.132 214.531,262.136 215.207 M156.139 280.799 C 156.139 281.390,156.202 281.632,156.279 281.336 C 156.357 281.041,156.357 280.557,156.279 280.261 C 156.202 279.965,156.139 280.207,156.139 280.799 M255.387 309.524 C 255.390 310.369,255.449 310.678,255.520 310.211 C 255.591 309.744,255.589 309.053,255.516 308.675 C 255.443 308.297,255.385 308.679,255.387 309.524 M255.410 318.280 C 255.410 319.885,255.462 320.541,255.525 319.739 C 255.589 318.936,255.589 317.623,255.525 316.820 C 255.462 316.018,255.410 316.674,255.410 318.280 M255.985 327.496 C 255.985 328.088,256.048 328.329,256.126 328.034 C 256.203 327.738,256.203 327.254,256.126 326.959 C 256.048 326.663,255.985 326.905,255.985 327.496 " stroke="none" fill="#848c9c" fill-rule="evenodd"></path></g></svg>